<svg data-v-423bf9ae="" xmlns="http://www.w3.org/2000/svg" viewBox="0 0 362.38096148158604 60" class="font"><!----><!----><!----><g data-v-423bf9ae="" id="3f1acb26-360a-4c04-b079-b36e266a49ca" fill="white" transform="matrix(5.952380997433594,0,0,5.952380997433594,-7.857142426079207,-18.75000118641627)"><path d="M1.64 13.09L1.64 13.09Q1.50 13.09 1.41 13.01L1.41 13.01L1.41 13.01Q1.32 12.92 1.32 12.78L1.32 12.78L1.32 3.61L1.32 3.61Q1.32 3.46 1.41 3.37L1.41 3.37L1.41 3.37Q1.50 3.29 1.64 3.29L1.64 3.29L1.99 3.29L1.99 3.29Q2.20 3.29 2.28 3.47L2.28 3.47L5.46 9.66L8.65 3.47L8.65 3.47Q8.75 3.29 8.95 3.29L8.95 3.29L9.28 3.29L9.28 3.29Q9.44 3.29 9.52 3.37L9.52 3.37L9.52 3.37Q9.60 3.46 9.60 3.61L9.60 3.61L9.60 12.78L9.60 12.78Q9.60 12.92 9.51 13.01L9.51 13.01L9.51 13.01Q9.42 13.09 9.28 13.09L9.28 13.09L9.03 13.09L9.03 13.09Q8.89 13.09 8.81 13.01L8.81 13.01L8.81 13.01Q8.72 12.92 8.72 12.78L8.72 12.78L8.72 5.19L6.05 10.46L6.05 10.46Q5.92 10.74 5.61 10.74L5.61 10.74L5.31 10.74L5.31 10.74Q5.00 10.74 4.87 10.46L4.87 10.46L2.20 5.19L2.20 12.78L2.20 12.78Q2.20 12.92 2.11 13.01L2.11 13.01L2.11 13.01Q2.03 13.09 1.89 13.09L1.89 13.09L1.64 13.09ZM14.76 13.23L14.76 13.23Q13.43 13.23 12.61 12.36L12.61 12.36L12.61 12.36Q11.80 11.48 11.69 10.01L11.69 10.01L11.68 9.45L11.69 8.89L11.69 8.89Q11.80 7.43 12.61 6.55L12.61 6.55L12.61 6.55Q13.41 5.67 14.76 5.67L14.76 5.67L14.76 5.67Q16.21 5.67 17.03 6.64L17.03 6.64L17.03 6.64Q17.85 7.60 17.85 9.28L17.85 9.28L17.85 9.49L17.85 9.49Q17.85 9.63 17.76 9.72L17.76 9.72L17.76 9.72Q17.67 9.80 17.53 9.80L17.53 9.80L12.54 9.80L12.54 9.94L12.54 9.94Q12.57 10.60 12.85 11.16L12.85 11.16L12.85 11.16Q13.12 11.73 13.61 12.07L13.61 12.07L13.61 12.07Q14.10 12.42 14.76 12.42L14.76 12.42L14.76 12.42Q15.53 12.42 16.01 12.12L16.01 12.12L16.01 12.12Q16.49 11.82 16.70 11.51L16.70 11.51L16.70 11.51Q16.83 11.34 16.89 11.30L16.89 11.30L16.89 11.30Q16.95 11.26 17.12 11.26L17.12 11.26L17.35 11.26L17.35 11.26Q17.47 11.26 17.56 11.33L17.56 11.33L17.56 11.33Q17.64 11.40 17.64 11.51L17.64 11.51L17.64 11.51Q17.64 11.80 17.27 12.21L17.27 12.21L17.27 12.21Q16.90 12.63 16.24 12.93L16.24 12.93L16.24 12.93Q15.58 13.23 14.76 13.23L14.76 13.23ZM12.54 9.02L17.00 9.02L17.00 8.96L17.00 8.96Q17.00 7.88 16.39 7.18L16.39 7.18L16.39 7.18Q15.78 6.48 14.76 6.48L14.76 6.48L14.76 6.48Q13.73 6.48 13.14 7.18L13.14 7.18L13.14 7.18Q12.54 7.88 12.54 8.96L12.54 8.96L12.54 9.02ZM20.01 13.09L20.01 13.09Q19.87 13.09 19.78 13.01L19.78 13.01L19.78 13.01Q19.70 12.92 19.70 12.78L19.70 12.78L19.70 6.12L19.70 6.12Q19.70 5.98 19.78 5.89L19.78 5.89L19.78 5.89Q19.87 5.81 20.01 5.81L20.01 5.81L20.24 5.81L20.24 5.81Q20.38 5.81 20.47 5.89L20.47 5.89L20.47 5.89Q20.55 5.98 20.55 6.12L20.55 6.12L20.55 6.78L20.55 6.78Q20.97 6.23 21.51 5.95L21.51 5.95L21.51 5.95Q22.05 5.67 22.90 5.67L22.90 5.67L22.90 5.67Q24.28 5.67 25.02 6.54L25.02 6.54L25.02 6.54Q25.76 7.42 25.76 8.81L25.76 8.81L25.76 12.78L25.76 12.78Q25.76 12.92 25.68 13.01L25.68 13.01L25.68 13.01Q25.59 13.09 25.45 13.09L25.45 13.09L25.21 13.09L25.21 13.09Q25.07 13.09 24.99 13.01L24.99 13.01L24.99 13.01Q24.91 12.92 24.91 12.78L24.91 12.78L24.91 8.88L24.91 8.88Q24.91 7.74 24.35 7.11L24.35 7.11L24.35 7.11Q23.80 6.48 22.76 6.48L22.76 6.48L22.76 6.48Q21.76 6.48 21.15 7.12L21.15 7.12L21.15 7.12Q20.55 7.76 20.55 8.88L20.55 8.88L20.55 12.78L20.55 12.78Q20.55 12.92 20.47 13.01L20.47 13.01L20.47 13.01Q20.38 13.09 20.24 13.09L20.24 13.09L20.01 13.09ZM30.69 13.23L30.69 13.23Q29.32 13.23 28.60 12.36L28.60 12.36L28.60 12.36Q27.89 11.49 27.89 10.09L27.89 10.09L27.89 6.12L27.89 6.12Q27.89 5.98 27.97 5.89L27.97 5.89L27.97 5.89Q28.06 5.81 28.20 5.81L28.20 5.81L28.43 5.81L28.43 5.81Q28.57 5.81 28.66 5.89L28.66 5.89L28.66 5.89Q28.74 5.98 28.74 6.12L28.74 6.12L28.74 10.02L28.74 10.02Q28.74 12.42 30.83 12.42L30.83 12.42L30.83 12.42Q31.84 12.42 32.43 11.78L32.43 11.78L32.43 11.78Q33.03 11.14 33.03 10.02L33.03 10.02L33.03 6.12L33.03 6.12Q33.03 5.98 33.11 5.89L33.11 5.89L33.11 5.89Q33.19 5.81 33.33 5.81L33.33 5.81L33.57 5.81L33.57 5.81Q33.71 5.81 33.80 5.89L33.80 5.89L33.80 5.89Q33.88 5.98 33.88 6.12L33.88 6.12L33.88 12.78L33.88 12.78Q33.88 12.92 33.80 13.01L33.80 13.01L33.80 13.01Q33.71 13.09 33.57 13.09L33.57 13.09L33.33 13.09L33.33 13.09Q33.19 13.09 33.11 13.01L33.11 13.01L33.11 13.01Q33.03 12.92 33.03 12.78L33.03 12.78L33.03 12.12L33.03 12.12Q32.61 12.67 32.07 12.95L32.07 12.95L32.07 12.95Q31.53 13.23 30.69 13.23L30.69 13.23ZM39.65 13.23L39.65 13.23Q37.83 13.23 36.92 12.20L36.92 12.20L36.92 12.20Q36.01 11.17 35.94 9.44L35.94 9.44L35.94 9.44Q35.92 9.06 35.92 8.20L35.92 8.20L35.92 8.20Q35.92 7.34 35.94 6.94L35.94 6.94L35.94 6.94Q36.01 5.21 36.92 4.18L36.92 4.18L36.92 4.18Q37.83 3.15 39.65 3.15L39.65 3.15L39.65 3.15Q40.89 3.15 41.72 3.61L41.72 3.61L41.72 3.61Q42.55 4.06 42.94 4.75L42.94 4.75L42.94 4.75Q43.34 5.45 43.39 6.17L43.39 6.17L43.39 6.20L43.39 6.20Q43.39 6.31 43.30 6.38L43.30 6.38L43.30 6.38Q43.22 6.45 43.09 6.45L43.09 6.45L42.81 6.45L42.81 6.45Q42.56 6.45 42.50 6.16L42.50 6.16L42.50 6.16Q42.24 4.97 41.54 4.48L41.54 4.48L41.54 4.48Q40.84 3.99 39.65 3.99L39.65 3.99L39.65 3.99Q38.33 3.99 37.60 4.73L37.60 4.73L37.60 4.73Q36.88 5.47 36.82 7.01L36.82 7.01L36.82 7.01Q36.81 7.39 36.81 8.18L36.81 8.18L36.81 8.18Q36.81 8.96 36.82 9.37L36.82 9.37L36.82 9.37Q36.88 10.91 37.60 11.65L37.60 11.65L37.60 11.65Q38.33 12.39 39.65 12.39L39.65 12.39L39.65 12.39Q40.84 12.39 41.54 11.90L41.54 11.90L41.54 11.90Q42.24 11.41 42.50 10.22L42.50 10.22L42.50 10.22Q42.56 9.93 42.81 9.93L42.81 9.93L43.09 9.93L43.09 9.93Q43.22 9.93 43.31 10.00L43.31 10.00L43.31 10.00Q43.40 10.08 43.39 10.21L43.39 10.21L43.39 10.21Q43.34 10.93 42.94 11.63L42.94 11.63L42.94 11.63Q42.55 12.32 41.72 12.78L41.72 12.78L41.72 12.78Q40.89 13.23 39.65 13.23L39.65 13.23ZM48.03 13.23L48.03 13.23Q46.58 13.23 45.77 12.34L45.77 12.34L45.77 12.34Q44.97 11.45 44.93 10.04L44.93 10.04L44.91 9.45L44.93 8.86L44.93 8.86Q44.97 7.45 45.77 6.56L45.77 6.56L45.77 6.56Q46.58 5.67 48.03 5.67L48.03 5.67L48.03 5.67Q49.49 5.67 50.30 6.56L50.30 6.56L50.30 6.56Q51.10 7.45 51.14 8.86L51.14 8.86L51.14 8.86Q51.16 9.00 51.16 9.45L51.16 9.45L51.16 9.45Q51.16 9.90 51.14 10.04L51.14 10.04L51.14 10.04Q51.10 11.45 50.30 12.34L50.30 12.34L50.30 12.34Q49.49 13.23 48.03 13.23L48.03 13.23ZM48.03 12.42L48.03 12.42Q49.03 12.42 49.64 11.78L49.64 11.78L49.64 11.78Q50.25 11.14 50.29 9.97L50.29 9.97L50.29 9.97Q50.30 9.83 50.30 9.45L50.30 9.45L50.30 9.45Q50.30 9.07 50.29 8.93L50.29 8.93L50.29 8.93Q50.25 7.76 49.64 7.12L49.64 7.12L49.64 7.12Q49.03 6.48 48.03 6.48L48.03 6.48L48.03 6.48Q47.04 6.48 46.43 7.12L46.43 7.12L46.43 7.12Q45.82 7.76 45.78 8.93L45.78 8.93L45.77 9.45L45.78 9.97L45.78 9.97Q45.82 11.14 46.43 11.78L46.43 11.78L46.43 11.78Q47.04 12.42 48.03 12.42L48.03 12.42ZM55.71 13.23L55.71 13.23Q54.19 13.23 53.47 12.24L53.47 12.24L53.47 12.24Q52.75 11.26 52.71 9.84L52.71 9.84L52.70 9.45L52.71 9.06L52.71 9.06Q52.75 7.64 53.47 6.66L53.47 6.66L53.47 6.66Q54.19 5.67 55.71 5.67L55.71 5.67L55.71 5.67Q57.23 5.67 58.06 6.78L58.06 6.78L58.06 3.46L58.06 3.46Q58.06 3.32 58.14 3.23L58.14 3.23L58.14 3.23Q58.23 3.15 58.37 3.15L58.37 3.15L58.60 3.15L58.60 3.15Q58.74 3.15 58.83 3.23L58.83 3.23L58.83 3.23Q58.91 3.32 58.91 3.46L58.91 3.46L58.91 12.78L58.91 12.78Q58.91 12.92 58.83 13.01L58.83 13.01L58.83 13.01Q58.74 13.09 58.60 13.09L58.60 13.09L58.37 13.09L58.37 13.09Q58.23 13.09 58.14 13.01L58.14 13.01L58.14 13.01Q58.06 12.92 58.06 12.78L58.06 12.78L58.06 12.12L58.06 12.12Q57.25 13.23 55.71 13.23L55.71 13.23ZM55.79 12.42L55.79 12.42Q56.90 12.42 57.46 11.68L57.46 11.68L57.46 11.68Q58.02 10.95 58.06 9.95L58.06 9.95L58.06 9.95Q58.07 9.81 58.07 9.41L58.07 9.41L58.07 9.41Q58.07 9.00 58.06 8.86L58.06 8.86L58.06 8.86Q58.04 8.26 57.79 7.72L57.79 7.72L57.79 7.72Q57.54 7.18 57.04 6.83L57.04 6.83L57.04 6.83Q56.53 6.48 55.79 6.48L55.79 6.48L55.79 6.48Q54.66 6.48 54.13 7.20L54.13 7.20L54.13 7.20Q53.61 7.92 53.56 9.06L53.56 9.06L53.55 9.45L53.55 9.45Q53.55 10.75 54.05 11.58L54.05 11.58L54.05 11.58Q54.56 12.42 55.79 12.42L55.79 12.42ZM61.35 4.31L61.35 4.31Q61.21 4.31 61.12 4.23L61.12 4.23L61.12 4.23Q61.04 4.14 61.04 4.00L61.04 4.00L61.04 3.47L61.04 3.47Q61.04 3.33 61.12 3.24L61.12 3.24L61.12 3.24Q61.21 3.15 61.35 3.15L61.35 3.15L61.88 3.15L61.88 3.15Q62.02 3.15 62.11 3.24L62.11 3.24L62.11 3.24Q62.20 3.33 62.20 3.47L62.20 3.47L62.20 4.00L62.20 4.00Q62.20 4.14 62.11 4.23L62.11 4.23L62.11 4.23Q62.02 4.31 61.88 4.31L61.88 4.31L61.35 4.31ZM61.50 13.09L61.50 13.09Q61.36 13.09 61.28 13.01L61.28 13.01L61.28 13.01Q61.19 12.92 61.19 12.78L61.19 12.78L61.19 6.12L61.19 6.12Q61.19 5.98 61.28 5.89L61.28 5.89L61.28 5.89Q61.36 5.81 61.50 5.81L61.50 5.81L61.74 5.81L61.74 5.81Q61.88 5.81 61.96 5.89L61.96 5.89L61.96 5.89Q62.05 5.98 62.05 6.12L62.05 6.12L62.05 12.78L62.05 12.78Q62.05 12.92 61.96 13.01L61.96 13.01L61.96 13.01Q61.88 13.09 61.74 13.09L61.74 13.09L61.50 13.09Z"></path></g><!----><!----></svg>